HIERARCHY
ROOT Hips
{
  OFFSET 0 0 0
  CHANNELS 6 Xposition Yposition Zposition Zrotation Xrotation Yrotation
  JOINT Spine
  {
    OFFSET 0 10.1816 0.131521
    CHANNELS 3 Zrotation Xrotation Yrotation
    JOINT Spine1
    {
      OFFSET 0 10.0835 -1.0008
      CHANNELS 3 Zrotation Xrotation Yrotation
      JOINT Spine2
      {
        OFFSET 0 9.10001 -1.37342
        CHANNELS 3 Zrotation Xrotation Yrotation
        JOINT Neck
        {
          OFFSET 0 16.6717 -2.51617
          CHANNELS 3 Zrotation Xrotation Yrotation
          JOINT Head
          {
            OFFSET 0 9.61788 1.68501
            CHANNELS 3 Zrotation Xrotation Yrotation
            End Site
            {
              OFFSET 0 0 0
            }
          }
        }
        JOINT LeftShoulder
        {
          OFFSET 4.57045 10.946 -2.62799
          CHANNELS 3 Zrotation Xrotation Yrotation
          JOINT LeftArm
          {
            OFFSET 10.5924 -0.524583 -2.23212
            CHANNELS 3 Zrotation Xrotation Yrotation
            JOINT LeftForeArm
            {
              OFFSET 27.8415 -8.94286e-05 3.74589e-05
              CHANNELS 3 Zrotation Xrotation Yrotation
              JOINT LeftHand
              {
                OFFSET 28.3288 -1.74407e-05 3.78045e-05
                CHANNELS 3 Zrotation Xrotation Yrotation
                End Site
                {
                  OFFSET 0 0 0
                }
              }
            }
          }
        }
        JOINT RightShoulder
        {
          OFFSET -4.56997 10.9462 -2.62802
          CHANNELS 3 Zrotation Xrotation Yrotation
          JOINT RightArm
          {
            OFFSET -10.5928 -0.524798 -2.2321
            CHANNELS 3 Zrotation Xrotation Yrotation
            JOINT RightForeArm
            {
              OFFSET -27.8415 -3.30792e-05 1.16763e-05
              CHANNELS 3 Zrotation Xrotation Yrotation
              JOINT RightHand
              {
                OFFSET -28.3288 0 5.5816e-05
                CHANNELS 3 Zrotation Xrotation Yrotation
                End Site
                {
                  OFFSET 0 0 0
                }
              }
            }
          }
        }
      }
    }
  }
  JOINT LeftUpLeg
  {
    OFFSET 8.20778 -6.75171 -1.59956
    CHANNELS 3 Zrotation Xrotation Yrotation
    JOINT LeftLeg
    {
      OFFSET 0 -44.3705 0.284643
      CHANNELS 3 Zrotation Xrotation Yrotation
      JOINT LeftFoot
      {
        OFFSET 0 -44.4279 -2.98219
        CHANNELS 3 Zrotation Xrotation Yrotation
        JOINT LeftToeBase
        {
          OFFSET 0 -8.72867 10.7106
          CHANNELS 3 Zrotation Xrotation Yrotation
          End Site
          {
            OFFSET 0 0 0
          }
        }
      }
    }
  }
  JOINT RightUpLeg
  {
    OFFSET -8.2078 -6.75166 -1.59956
    CHANNELS 3 Zrotation Xrotation Yrotation
    JOINT RightLeg
    {
      OFFSET 0 -44.3705 0.286156
      CHANNELS 3 Zrotation Xrotation Yrotation
      JOINT RightFoot
      {
        OFFSET 0 -44.4277 -2.98379
        CHANNELS 3 Zrotation Xrotation Yrotation
        JOINT RightToeBase
        {
          OFFSET 0 -8.72867 10.7106
          CHANNELS 3 Zrotation Xrotation Yrotation
          End Site
          {
            OFFSET 0 0 0
          }
        }
      }
    }
  }
}
MOTION
Frames:	11
Frame Time:	0.0333333
0.170038 42.6277 -3.29966 172.586 -64.9103 178.769 -2.68701 53.984 -5.86694 2.99508 14.3047 -3.28437 3.09799 14.4132 -2.30664 1.37845 8.08355 -0.0364107 7.28945 28.271 -0.326909 -0.617488 5.84664 -2.75254 -99.0082 -14.4428 34.0435 -0.000211626 2.51709e-05 -34.4332 98.4295 19.013 -20.6918 -1.61494 0.566461 -0.00414735 88.9414 -10.0422 -30.0709 -8.27318e-08 -3.30034e-06 41.6057 -102.35 36.2892 40.0062 70.4931 -27.3591 58.7382 3.1911 22.1336 -4.82415 -0.929095 29.3609 0.508733 -9.74385e-06 0.144989 -2.77593e-05 -57.3133 -27.6822 -41.2674 -4.93721 7.75775 -9.37258 10.8045 -10.5929 -16.2566 -1.62152e-05 3.859 4.91043e-06 
3.13986 41.8852 -5.03072 167.409 -62.4831 161.821 -13.031 57.2275 4.6575 2.40797 13.9229 -1.62266 2.33517 13.9614 -0.577228 2.5924 7.62923 -0.839004 15.1191 23.7967 -9.00425 -2.1879 5.88814 -7.92022 -96.0282 -26.5826 38.0329 -0.000208809 2.29876e-05 -41.1278 91.6502 24.5986 -38.2551 -0.481995 3.39951 -1.24959 85.3304 -15.5133 -26.5425 2.37835e-08 -3.20259e-06 43.4825 -104.918 35.4123 44.0921 74.2313 -39.2285 61.7785 0.492805 38.5857 -3.07122 -3.44076 18.8586 -0.417955 -1.01523e-05 -0.697947 -2.77613e-05 -48.4019 -22.7225 -38.2724 -8.36123 14.7192 -7.50528 11.5149 -7.10147 -11.9173 -1.54288e-05 -5.31622 4.92046e-06 
6.34969 41.9956 -7.67832 162.666 -62.7507 145.351 -19.8568 58.9812 12.4552 1.7854 13.0703 -0.031982 1.53927 13.0562 1.0149 3.11661 7.43313 -1.48628 18.561 20.9919 -15.0592 -3.74209 5.46401 -15.4545 -96.4985 -28.0346 38.4231 -0.000206994 2.12671e-05 -45.8237 71.1245 33.3021 -29.3077 1.14111 6.24555 -4.33199 81.908 -18.3804 -20.2048 -1.97667e-08 -3.24333e-06 42.7083 -107.128 33.1902 45.1246 70.4226 -50.0935 59.1475 0.677564 41.6808 -0.71589 -2.91331 12.9853 -0.238479 -9.83603e-06 -0.0452839 -2.77593e-05 -41.053 -16.2364 -36.5191 -9.57698 22.3388 0.0198874 6.46876 -4.00441 2.89279 -1.49834e-05 -10.4241 4.98151e-06 
9.15026 42.3288 -11.5983 153.154 -66.4038 124.793 -21.4456 59.2437 14.7397 1.49415 11.9464 1.121 1.09915 11.9147 2.20508 2.85485 7.40145 -1.9197 17.1929 19.1169 -18.6229 -7.56974 4.98928 -23.2279 -80.2936 -36.0605 45.0933 -0.000200138 1.02548e-05 -70.3653 29.4444 27.4522 5.44278 3.53114 8.1503 -6.24286 76.6962 -20.0583 -12.4826 -1.33643e-07 -3.34486e-06 40.7278 -109.524 30.3782 43.6944 60.5749 -57.3681 49.383 3.93966 34.1416 1.36199 -2.85548 18.1181 0.450426 -9.54601e-06 0.553322 -2.77606e-05 -37.8473 -15.7955 -34.2803 -10.3908 39.5573 2.42297 3.08473 -8.63675 9.42753 -1.53322e-05 -6.43442 4.93035e-06 
11.0364 43.0465 -16.6736 129.598 -70.719 91.717 -19.0616 57.8896 12.3194 1.87464 11.1546 1.58511 1.37553 11.1405 2.83472 2.14716 7.20434 -2.14864 13.3659 16.1159 -20.9956 -12.3503 5.6957 -25.8306 -60.2024 -40.3463 41.0969 -0.000199019 6.29057e-06 -78.1046 -11.6269 9.90271 10.8131 6.79783 8.4734 -4.37415 68.1805 -22.694 -5.49313 -2.36055e-07 -3.43037e-06 38.9958 -111.919 27.4614 41.0831 54.7416 -59.7548 42.173 6.63887 25.5991 -0.421452 -6.26681 22.7425 1.43505 -9.96277e-06 -0.306858 -2.77597e-05 -35.2574 -20.7794 -33.6152 -12.4658 57.167 1.76041 7.35945 -14.9936 5.89405 -1.59611e-05 0.893286 4.89989e-06 
11.5764 44.262 -22.684 91.5638 -68.8971 46.5949 -14.185 55.3504 7.65699 2.92975 11.1791 1.48229 2.35942 11.2011 2.98448 1.41268 6.55977 -2.26402 10.1001 10.9445 -24.1329 -16.3116 9.83387 -20.2797 -47.7839 -44.9441 26.8572 -0.000198426 -1.94474e-06 -93.6536 -16.4279 16.9896 15.5669 12.265 7.69908 1.59641 54.6609 -27.3096 -1.73979 -2.15777e-07 -3.41385e-06 39.3353 -108.609 25.4439 37.7952 64.1275 -62.7721 48.639 8.62252 31.366 -3.52128 -8.92176 18.9846 1.96925 -1.07242e-05 -1.87778 -2.77742e-05 -28.2839 -24.3517 -35.6186 -20.5381 69.9267 16.9049 5.98937 2.42173 7.06605 -1.62206e-05 3.9217 4.9108e-06 
11.1921 45.8158 -27.901 67.0974 -57.7858 17.9743 -7.8253 52.6644 1.68912 4.28378 11.8961 1.14258 3.63241 11.954 2.85354 0.654747 5.5077 -2.29801 7.76634 4.3724 -28.0026 -20.6716 19.0156 -9.57784 -50.354 -50.8039 -7.40968 -0.000198675 -4.34586e-06 -98.1869 13.1781 16.1676 -3.60646 17.6486 8.04893 10.7096 38.0618 -33.1951 -1.15667 -1.99294e-07 -3.40028e-06 39.6125 -105.322 22.9134 32.9406 83.0764 -65.8776 63.9413 11.5003 45.7861 -12.9658 -11.4375 8.97711 1.81609 -1.07394e-05 -1.90916 -2.77747e-05 -23.5522 -31.8324 -36.9281 -78.8041 82.3366 70.6955 15.8467 -5.37404 6.13331 -1.5815e-05 -0.815678 4.89979e-06 
10.1661 47.8089 -33.2784 55.8168 -42.578 4.75711 -0.144145 50.819 -5.03971 5.34804 12.84 0.797574 4.5773 12.9227 2.60065 -0.359517 4.25423 -2.1379 5.40606 -2.93026 -30.4151 -26.2935 28.904 0.215322 -50.9599 -46.9038 -35.1683 -0.000198932 -5.85869e-06 -101.068 27.7156 3.94548 -13.6067 17.7892 10.1323 21.2692 24.3112 -38.9557 -1.9744 -1.99395e-07 -3.40036e-06 39.6108 -101.154 20.1564 26.5442 100.079 -66.194 76.8193 15.9062 61.709 -18.1082 -19.868 -6.66697 -0.624296 -9.36591e-06 0.924989 -2.77629e-05 -15.8969 -33.9492 -34.19 -121.341 81.0073 115.106 4.86858 -2.8934 7.79063 -1.50131e-05 -10.0878 4.97623e-06 
8.38342 50.4151 -38.2447 50.0303 -26.1663 -2.27733 6.89914 50.37 -11.8422 5.62908 13.7151 0.507637 4.72545 13.8054 2.28811 -1.48114 2.79262 -1.68461 3.55725 -11.1322 -29.0556 -28.3956 35.631 3.22503 -44.5771 -47.3616 -46.089 -0.000199339 -7.65144e-06 -104.52 31.1705 3.14214 -15.8333 11.2054 10.8123 32.0769 17.3576 -43.0394 -2.02581 -1.30871e-07 -3.34247e-06 40.7753 -97.4636 17.6584 18.8634 103.659 -64.7406 77.5876 15.8606 69.706 -16.2844 -22.6608 -15.8102 -3.5463 -7.22917e-06 5.32001 -2.78794e-05 -14.4103 -37.8629 -33.8427 -144.416 76.7501 140.421 8.59208 -1.66395 13.2445 -1.40317e-05 -20.7181 5.23803e-06 
6.21662 53.6711 -42.1093 46.2149 -9.22975 -7.46474 11.3466 50.758 -16.9734 5.1129 14.3568 0.27707 4.13511 14.4326 1.91658 -2.12766 0.879457 -1.04926 3.62493 -19.9592 -23.4236 -23.1442 39.8943 -2.06902 -42.2801 -51.149 -58.8687 -0.000198922 -5.80954e-06 -100.974 14.6779 10.2071 -4.28905 2.10923 7.22511 40.7778 17.3137 -44.329 1.39458 -5.47574e-08 -3.27528e-06 42.0932 -94.431 15.0279 10.6903 92.2625 -62.3988 66.8728 11.5938 73.2791 -10.234 -23.5848 -23.0603 -4.81786 -5.51712e-06 8.79922 -2.80899e-05 -20.9875 -42.6847 -35.9631 -158.32 70.3154 153.676 19.4322 0.214745 18.697 -1.22923e-05 -36.2507 6.07524e-06 
4.20196 57.2766 -44.1065 43.2191 8.79077 -11.9937 11.9931 50.818 -18.0841 4.26687 14.3844 0.0870427 3.34814 14.4234 1.44686 -2.18365 -1.44594 -0.409765 5.76659 -28.1008 -15.3869 -14.2573 42.2549 -11.2301 -48.5044 -55.159 -69.9215 -0.000183105 2.56478e-10 -100.895 9.71209 19.5005 3.9633 -3.69335 1.96576 44.636 19.9086 -43.3213 8.6837 -1.084e-08 -3.23507e-06 42.8662 -91.8612 13.2847 2.95265 77.2604 -57.1308 54.2432 6.79525 68.5862 -2.21333 -17.8353 -22.4793 -1.66275 -5.01304e-06 9.81242 -2.81714e-05 -29.6331 -47.0976 -39.1655 -163.523 66.3458 164.158 25.479 -0.512872 22.034 -9.22598e-06 -53.6555 8.26692e-06 
